<svg xmlns="http://www.w3.org/2000/svg" width="208" height="50" viewBox="0 0 208 50" fill="none">
  <path d="M0.320251 14.4751H13.0476C19.1686 14.4751 20.4702 17.9283 20.4702 20.3062C20.4702 22.6841 19.3287 23.9247 17.6035 24.8656C19.6851 25.5841 21.6376 27.2435 21.6376 30.6656C21.6376 35.3232 17.6035 37.7373 13.497 37.7373H0.320251V14.4751ZM7.47941 23.5319H11.2553C12.7532 23.5319 13.6985 23.108 13.6985 21.6089C13.6985 20.4354 12.7222 20.0115 11.2553 20.0115H7.47941V23.5319ZM7.47941 32.2009H11.6788C13.1768 32.2009 14.4784 31.777 14.4784 29.9832C14.4784 28.6134 13.6623 27.8638 11.9732 27.8638H7.47941V32.2009Z" fill="#00558C"/>
  <path d="M23.6262 14.4751H37.2679C41.3382 14.4751 44.8506 16.7238 44.8506 21.1229C44.8506 23.5319 43.7452 26.0752 41.3692 26.954C43.3217 27.7035 44.5252 29.854 44.7886 32.754C44.8868 33.8965 44.9178 36.6621 45.5686 37.7373H38.4094C38.053 36.5638 37.9187 35.3594 37.8258 34.1549C37.6295 31.9373 37.4332 29.6265 34.6026 29.6265H30.7957V37.7373H23.6366V14.4751H23.6262ZM30.7854 24.6433H34.5303C35.8629 24.6433 37.6863 24.4158 37.6863 22.3326C37.6863 20.8645 36.8702 20.0219 34.1377 20.0219H30.7854V24.6484V24.6433Z" fill="#00558C"/>
  <path d="M60.3776 14.4751L68.8436 37.7373H61.421L60.4448 34.4134H53.0532L52.0098 37.7373H44.8145L53.3734 14.4751H60.3776ZM59.0088 29.4301L56.9272 22.2654H56.86L54.6131 29.4301H59.0088Z" fill="#00558C"/>
  <path d="M75.3209 29.916C75.3209 30.5002 75.4191 31.0223 75.5792 31.4462C76.1009 32.8471 77.6608 33.1417 78.9986 33.1417C80.1712 33.1417 81.9584 32.7489 81.9584 31.0223C81.9584 29.8178 80.9511 29.4921 76.948 28.3497C73.2703 27.3055 69.0709 26.2975 69.0709 21.6037C69.0709 16.2275 73.6629 13.9168 78.446 13.9168C83.4925 13.9168 87.9502 15.8398 88.1465 21.5055H81.3747C81.5038 20.6267 81.1164 20.0374 80.5276 19.6497C79.9439 19.2258 79.1278 19.0655 78.4098 19.0655C77.4336 19.0655 75.8375 19.324 75.8375 20.6267C75.9666 22.286 79.2879 22.6479 82.5782 23.5577C85.8685 24.4675 89.1227 26.0028 89.1227 30.2676C89.1227 36.3261 83.5545 38.2801 78.3788 38.2801C75.7445 38.2801 68.2238 37.3341 68.1566 29.9057H75.3158L75.3209 29.916Z" fill="#00558C"/>
  <path d="M103.963 14.4751L112.429 37.7373H105.006L104.03 34.4134H96.6383L95.5949 37.7373H88.3996L96.9585 14.4751H103.963ZM102.599 29.4301L100.517 22.2654H100.45L98.2034 29.4301H102.599Z" fill="#00558C"/>
  <path d="M113.24 14.4751H120.564L127.336 26.9178H127.403V14.4751H134.175V37.7373H127.207L120.079 25.031H120.011V37.7373H113.24V14.4751Z" fill="#00558C"/>
  <path d="M137.104 14.4751H144.263V37.7373H137.104V14.4751Z" fill="#00558C"/>
  <path d="M146.055 20.4406V14.4803H166.236V20.4406H159.728V37.7373H152.569V20.4406H146.055Z" fill="#00558C"/>
  <path d="M179.098 14.4751L187.564 37.7373H180.141L179.165 34.4134H171.773L170.73 37.7373H163.535L172.094 14.4751H179.098ZM177.729 29.4301L175.647 22.2654H175.58L173.333 29.4301H177.729Z" fill="#00558C"/>
  <path d="M194.036 29.916C194.036 30.5002 194.134 31.0223 194.294 31.4462C194.816 32.8471 196.376 33.1417 197.714 33.1417C198.886 33.1417 200.673 32.7489 200.673 31.0223C200.673 29.8178 199.666 29.4921 195.663 28.3497C191.985 27.3055 187.786 26.2975 187.786 21.6037C187.786 16.2275 192.378 13.9168 197.161 13.9168C202.207 13.9168 206.665 15.8398 206.861 21.5055H200.09C200.219 20.6267 199.831 20.0374 199.243 19.6497C198.659 19.2258 197.843 19.0655 197.125 19.0655C196.148 19.0655 194.552 19.324 194.552 20.6267C194.682 22.286 198.003 22.6479 201.293 23.5577C204.583 24.4675 207.838 26.0028 207.838 30.2676C207.838 36.3261 202.269 38.2801 197.094 38.2801C194.459 38.2801 186.939 37.3341 186.872 29.9057H194.031L194.036 29.916Z" fill="#00558C"/>
  <path d="M10.2532 11.5958H9.00318L8.70876 10.2828C7.66019 11.4717 6.70977 11.8646 5.35129 11.8646C1.99899 11.8594 0 9.20236 0 6.01286C0 2.82336 1.99899 0.161133 5.34612 0.161133C7.78416 0.161133 9.82963 1.45865 10.1292 3.97613H8.22322C8.03726 2.50803 6.75626 1.7533 5.34612 1.7533C2.95457 1.7533 1.9525 3.8624 1.9525 6.00769C1.9525 8.15298 2.95457 10.2621 5.34612 10.2621C7.34511 10.2931 8.44016 9.08864 8.47115 7.19665H5.50108V5.71304H10.2532V11.5958Z" fill="#EC6608"/>
  <path d="M11.9836 0.424771H17.3142C19.7522 0.424771 21.0023 1.55169 21.0023 3.44368C21.0023 5.5838 19.5198 6.13176 19.1582 6.26099V6.29201C19.8297 6.38506 20.8163 6.88649 20.8163 8.65441C20.8163 9.95192 21.0023 11.1409 21.4258 11.5958H19.3339C19.0394 11.1099 19.0394 10.4999 19.0394 9.95192C19.0394 7.90485 18.6159 6.99504 16.8183 6.99504H13.9412V11.5906H11.9887V0.424771H11.9836ZM13.9412 5.51143H17.1437C18.3783 5.51143 19.0498 4.90145 19.0498 3.728C19.0498 2.30642 18.1303 2.02211 17.1128 2.02211H13.9412V5.51143Z" fill="#EC6608"/>
  <path d="M22.4692 0.424771H24.4217V6.93301C24.4217 8.43213 24.5147 10.169 27.0457 10.169C29.5767 10.169 29.6697 8.43213 29.6697 6.93301V0.424771H31.6222V7.57401C31.6222 10.4378 29.7937 11.8594 27.0457 11.8594C24.2977 11.8594 22.4692 10.4378 22.4692 7.57401V0.424771Z" fill="#EC6608"/>
  <path d="M33.4869 0.424771H38.4094C41.5965 0.424771 42.206 2.48735 42.206 3.88308C42.206 5.27881 41.5965 7.32588 38.4094 7.31037H35.4394V11.5958H33.4869V0.424771ZM35.4394 5.71304H38.301C39.1739 5.71304 40.2535 5.27364 40.2535 3.86757C40.2535 2.4615 39.365 2.02211 38.332 2.02211H35.4394V5.71304Z" fill="#EC6608"/>
  <path d="M53.6162 6.01286C53.6162 9.20236 51.6172 11.8646 48.2701 11.8646C44.9229 11.8646 42.9239 9.20753 42.9239 6.01286C42.9239 2.81819 44.9229 0.161133 48.2701 0.161133C51.6172 0.161133 53.6162 2.81819 53.6162 6.01286ZM44.8816 6.01286C44.8816 8.15298 45.8837 10.2673 48.2752 10.2673C50.6668 10.2673 51.6689 8.15815 51.6689 6.01286C51.6689 3.86757 50.6668 1.75847 48.2752 1.75847C45.8837 1.75847 44.8816 3.86757 44.8816 6.01286Z" fill="#EC6608"/>
  <path d="M118.849 40.7872V41.5058H114.071V44.7108H118.317V45.4293H114.071V49.6527H113.229V40.7821H118.854L118.849 40.7872Z" fill="#EC6608"/>
  <path d="M119.903 44.2404C120.037 43.9664 120.213 43.7441 120.445 43.5683C120.673 43.3926 120.941 43.2685 121.246 43.1858C121.551 43.1031 121.892 43.0617 122.264 43.0617C122.542 43.0617 122.827 43.0876 123.105 43.1445C123.384 43.1962 123.637 43.2995 123.865 43.4494C124.087 43.5994 124.268 43.8061 124.412 44.0749C124.552 44.3438 124.624 44.6953 124.624 45.1243V48.5309C124.624 48.8463 124.779 49.0014 125.084 49.0014C125.177 49.0014 125.259 48.9858 125.332 48.9497V49.6062C125.239 49.6217 125.161 49.6372 125.089 49.6424C125.017 49.6527 124.929 49.6527 124.82 49.6527C124.624 49.6527 124.464 49.6269 124.34 49.57C124.221 49.5183 124.128 49.4408 124.061 49.3425C123.994 49.2443 123.953 49.1254 123.932 48.991C123.911 48.8566 123.901 48.7015 123.901 48.5361H123.875C123.736 48.7429 123.591 48.929 123.446 49.0892C123.302 49.2495 123.142 49.3839 122.961 49.4924C122.785 49.601 122.579 49.6837 122.351 49.7406C122.124 49.7974 121.85 49.8285 121.54 49.8285C121.241 49.8285 120.962 49.7923 120.704 49.7251C120.445 49.6527 120.213 49.5441 120.022 49.3891C119.825 49.234 119.676 49.0427 119.562 48.8049C119.448 48.5671 119.397 48.288 119.397 47.9675C119.397 47.5177 119.495 47.1714 119.696 46.9181C119.893 46.6648 120.156 46.4735 120.487 46.3391C120.812 46.2047 121.184 46.1117 121.592 46.06C122 46.0083 122.418 45.9566 122.842 45.9049C123.007 45.8894 123.152 45.8687 123.276 45.8429C123.4 45.817 123.503 45.7757 123.586 45.7136C123.668 45.6516 123.73 45.5689 123.777 45.4603C123.823 45.3518 123.844 45.2122 123.844 45.0364C123.844 44.7728 123.803 44.5557 123.715 44.3851C123.627 44.2145 123.508 44.0801 123.353 43.9819C123.198 43.8837 123.023 43.8165 122.821 43.7751C122.62 43.7389 122.403 43.7183 122.171 43.7183C121.675 43.7183 121.267 43.8372 120.952 44.0698C120.636 44.3076 120.471 44.6849 120.456 45.207H119.676C119.701 44.8348 119.779 44.5092 119.913 44.2404H119.903ZM123.813 46.1582C123.761 46.2513 123.668 46.3133 123.529 46.3546C123.39 46.396 123.266 46.427 123.157 46.4425C122.827 46.4994 122.486 46.5511 122.134 46.5976C121.783 46.6441 121.463 46.7113 121.174 46.8044C120.884 46.8974 120.647 47.0267 120.461 47.1972C120.275 47.3678 120.182 47.6108 120.182 47.9261C120.182 48.1226 120.223 48.3035 120.301 48.4534C120.378 48.6085 120.487 48.7377 120.616 48.8514C120.75 48.9652 120.9 49.0479 121.075 49.1047C121.251 49.1616 121.427 49.1926 121.608 49.1926C121.907 49.1926 122.191 49.1461 122.465 49.0582C122.739 48.9652 122.976 48.8359 123.178 48.6602C123.379 48.4844 123.539 48.2776 123.663 48.0243C123.782 47.7762 123.844 47.4919 123.844 47.1817V46.1634H123.818L123.813 46.1582Z" fill="#EC6608"/>
  <path d="M130.104 44.1318C129.815 43.8578 129.407 43.7234 128.885 43.7234C128.514 43.7234 128.188 43.801 127.904 43.9612C127.625 44.1163 127.388 44.3282 127.202 44.5815C127.016 44.84 126.876 45.1295 126.778 45.4552C126.685 45.7808 126.633 46.1168 126.633 46.4529C126.633 46.7889 126.68 47.1249 126.778 47.4505C126.871 47.7762 127.016 48.0709 127.202 48.3242C127.388 48.5826 127.62 48.7894 127.904 48.9445C128.183 49.0996 128.514 49.1823 128.885 49.1823C129.123 49.1823 129.35 49.1358 129.567 49.0479C129.784 48.9548 129.97 48.8308 130.141 48.6705C130.306 48.5103 130.44 48.319 130.549 48.0915C130.657 47.8693 130.724 47.6263 130.745 47.3575H131.525C131.416 48.1381 131.132 48.7429 130.668 49.1771C130.203 49.6113 129.609 49.8285 128.88 49.8285C128.39 49.8285 127.961 49.7406 127.584 49.5596C127.207 49.3839 126.892 49.1409 126.633 48.8308C126.375 48.5258 126.184 48.1639 126.05 47.7555C125.915 47.3472 125.853 46.9078 125.853 46.4425C125.853 45.9773 125.921 45.543 126.05 45.1295C126.184 44.7211 126.375 44.3593 126.633 44.0543C126.892 43.7493 127.207 43.5011 127.584 43.3202C127.961 43.1393 128.395 43.0462 128.88 43.0462C129.567 43.0462 130.151 43.2272 130.626 43.5942C131.101 43.9612 131.385 44.5092 131.478 45.2484H130.699C130.59 44.7676 130.394 44.3903 130.104 44.1163V44.1318Z" fill="#EC6608"/>
  <path d="M133.421 40.7872V42.0434H132.641V40.7872H133.421ZM133.421 43.2478V49.6579H132.641V43.2478H133.421Z" fill="#EC6608"/>
  <path d="M135.719 40.7872V49.6579H134.939V40.7872H135.719Z" fill="#EC6608"/>
  <path d="M138.013 40.7872V42.0434H137.233V40.7872H138.013ZM138.013 43.2478V49.6579H137.233V43.2478H138.013Z" fill="#EC6608"/>
  <path d="M142.062 43.9044H140.761V48.2259C140.761 48.4844 140.797 48.686 140.864 48.8308C140.936 48.9755 141.112 49.0582 141.391 49.0737C141.613 49.0737 141.84 49.0634 142.062 49.0375V49.694C141.949 49.694 141.83 49.694 141.716 49.7044C141.603 49.7147 141.484 49.7147 141.37 49.7147C140.848 49.7147 140.487 49.6113 140.28 49.4097C140.074 49.2081 139.975 48.8308 139.981 48.2828V43.8992H138.865V43.2427H139.981V41.3145H140.761V43.2427H142.062V43.9044Z" fill="#EC6608"/>
  <path d="M143.984 40.7872V42.0434H143.204V40.7872H143.984ZM143.984 43.2478V49.6579H143.204V43.2478H143.984Z" fill="#EC6608"/>
  <path d="M146.065 47.5436C146.143 47.8434 146.272 48.1174 146.442 48.3552C146.618 48.593 146.835 48.7946 147.098 48.9497C147.362 49.1047 147.682 49.1875 148.054 49.1875C148.627 49.1875 149.072 49.0375 149.397 48.7377C149.717 48.4379 149.945 48.0399 150.069 47.5436H150.848C150.683 48.2725 150.378 48.8359 149.934 49.234C149.49 49.632 148.865 49.8285 148.054 49.8285C147.548 49.8285 147.114 49.7406 146.742 49.5596C146.375 49.3839 146.076 49.1358 145.843 48.8256C145.611 48.5154 145.44 48.1536 145.327 47.7452C145.213 47.3368 145.161 46.9026 145.161 46.4477C145.161 46.0238 145.218 45.6102 145.327 45.207C145.44 44.8038 145.611 44.4368 145.843 44.1215C146.076 43.801 146.375 43.5477 146.742 43.3512C147.109 43.1548 147.548 43.0617 148.054 43.0617C148.56 43.0617 149.004 43.1651 149.371 43.3719C149.733 43.5787 150.032 43.8527 150.26 44.1835C150.487 44.5195 150.652 44.902 150.75 45.3414C150.848 45.7757 150.89 46.2151 150.874 46.6648H145.947C145.947 46.9439 145.988 47.2386 146.065 47.5384V47.5436ZM149.939 45.1502C149.846 44.8762 149.712 44.6332 149.536 44.4213C149.361 44.2093 149.149 44.0388 148.901 43.9095C148.653 43.7803 148.369 43.7183 148.059 43.7183C147.749 43.7183 147.45 43.7803 147.202 43.9095C146.954 44.0388 146.742 44.2093 146.566 44.4213C146.391 44.6332 146.251 44.8762 146.148 45.1553C146.045 45.4345 145.978 45.7188 145.941 46.0083H150.089C150.079 45.7085 150.027 45.4241 149.934 45.1502H149.939Z" fill="#EC6608"/>
  <path d="M155.616 44.4988C155.523 44.3231 155.404 44.1732 155.249 44.0594C155.094 43.9457 154.919 43.8578 154.722 43.8061C154.526 43.7544 154.314 43.7234 154.087 43.7234C153.912 43.7234 153.736 43.7441 153.56 43.7803C153.385 43.8165 153.219 43.8785 153.07 43.9664C152.92 44.0543 152.801 44.168 152.708 44.3076C152.615 44.4471 152.574 44.6229 152.574 44.8297C152.574 45.0054 152.615 45.1502 152.703 45.2691C152.791 45.388 152.899 45.4913 153.033 45.5741C153.168 45.6568 153.312 45.724 153.467 45.7808C153.622 45.8325 153.767 45.8791 153.901 45.9101L154.945 46.1479C155.167 46.1789 155.389 46.2409 155.611 46.3288C155.828 46.4167 156.024 46.5304 156.195 46.67C156.365 46.8095 156.505 46.9853 156.613 47.1921C156.721 47.3988 156.773 47.6418 156.773 47.9261C156.773 48.2725 156.696 48.5723 156.536 48.8153C156.381 49.0582 156.179 49.2598 155.931 49.4097C155.688 49.5648 155.409 49.6734 155.105 49.7406C154.8 49.8078 154.495 49.8388 154.201 49.8388C153.447 49.8388 152.837 49.663 152.372 49.3063C151.902 48.9497 151.639 48.381 151.572 47.5901H152.352C152.383 48.1226 152.579 48.5206 152.93 48.7894C153.281 49.0582 153.72 49.1926 154.242 49.1926C154.433 49.1926 154.63 49.1719 154.831 49.1306C155.032 49.0892 155.224 49.0169 155.394 48.9186C155.57 48.8204 155.709 48.6912 155.823 48.5413C155.936 48.3862 155.988 48.2001 155.988 47.9778C155.988 47.7866 155.947 47.6263 155.869 47.4971C155.792 47.3678 155.683 47.2593 155.554 47.1766C155.42 47.0887 155.27 47.0163 155.1 46.9594C154.929 46.9026 154.759 46.8509 154.583 46.8095L153.576 46.5873C153.318 46.5201 153.085 46.4425 152.868 46.3598C152.651 46.2719 152.465 46.1634 152.305 46.0393C152.145 45.9101 152.016 45.755 151.928 45.5689C151.835 45.3828 151.794 45.1502 151.794 44.8814C151.794 44.5609 151.866 44.2817 152.011 44.0491C152.155 43.8165 152.341 43.6304 152.574 43.4908C152.806 43.3512 153.064 43.2478 153.348 43.1806C153.633 43.1134 153.917 43.0824 154.201 43.0824C154.521 43.0824 154.826 43.1238 155.1 43.2065C155.378 43.2892 155.621 43.4184 155.833 43.589C156.045 43.7648 156.21 43.9767 156.334 44.2352C156.458 44.4937 156.53 44.7935 156.546 45.1398H155.766C155.756 44.902 155.709 44.6901 155.616 44.5143V44.4988Z" fill="#EC6608"/>
  <path d="M162.109 47.8848C162.259 48.1898 162.46 48.4379 162.724 48.6188C162.982 48.7997 163.292 48.929 163.648 49.0117C164.005 49.0892 164.387 49.1306 164.79 49.1306C165.022 49.1306 165.275 49.0996 165.549 49.0324C165.823 48.9652 166.076 48.8618 166.313 48.717C166.551 48.5723 166.747 48.3862 166.902 48.1587C167.057 47.9313 167.14 47.6573 167.14 47.3316C167.14 47.0835 167.083 46.8664 166.975 46.6855C166.861 46.5045 166.716 46.3495 166.541 46.2254C166.365 46.1013 166.164 45.9979 165.952 45.9204C165.735 45.8429 165.523 45.7757 165.317 45.7291L163.343 45.2432C163.085 45.176 162.837 45.0933 162.594 44.9951C162.352 44.8969 162.135 44.7625 161.954 44.597C161.773 44.4316 161.623 44.23 161.515 43.9871C161.401 43.7493 161.35 43.4546 161.35 43.1031C161.35 42.886 161.391 42.6379 161.474 42.3432C161.556 42.0537 161.711 41.7797 161.938 41.5213C162.166 41.2628 162.481 41.0457 162.873 40.8699C163.271 40.6942 163.777 40.6011 164.402 40.6011C164.841 40.6011 165.26 40.658 165.657 40.7769C166.055 40.8906 166.401 41.0664 166.701 41.299C167 41.5316 167.238 41.8211 167.414 42.1623C167.589 42.5086 167.682 42.9067 167.682 43.3616H166.84C166.825 43.0204 166.747 42.7257 166.613 42.4724C166.479 42.2191 166.298 42.0072 166.081 41.8366C165.864 41.666 165.611 41.5368 165.322 41.4489C165.038 41.361 164.738 41.3197 164.423 41.3197C164.134 41.3197 163.855 41.3507 163.586 41.4127C163.318 41.4748 163.08 41.573 162.879 41.7125C162.677 41.8469 162.512 42.0279 162.388 42.2553C162.264 42.4776 162.202 42.7568 162.202 43.0876C162.202 43.2944 162.238 43.4753 162.305 43.6304C162.378 43.7855 162.47 43.9147 162.594 44.0232C162.718 44.1318 162.863 44.2197 163.023 44.2817C163.183 44.3489 163.354 44.4006 163.54 44.442L165.699 44.9744C166.014 45.0571 166.308 45.1605 166.587 45.2794C166.866 45.3983 167.109 45.5482 167.321 45.7291C167.533 45.9049 167.698 46.1272 167.817 46.3805C167.935 46.639 167.997 46.9491 167.997 47.311C167.997 47.4092 167.987 47.5436 167.966 47.709C167.946 47.8744 167.894 48.0502 167.817 48.2363C167.739 48.4224 167.625 48.6136 167.481 48.7997C167.336 48.991 167.135 49.1616 166.887 49.3167C166.634 49.4718 166.324 49.5958 165.952 49.6889C165.58 49.7819 165.131 49.8336 164.609 49.8336C164.087 49.8336 163.602 49.7716 163.157 49.6527C162.708 49.5338 162.331 49.3477 162.016 49.0996C161.701 48.8514 161.458 48.5309 161.288 48.1432C161.117 47.7555 161.045 47.2851 161.071 46.7372H161.913C161.902 47.1921 161.975 47.5746 162.124 47.8796L162.109 47.8848Z" fill="#EC6608"/>
  <path d="M169.754 47.5436C169.831 47.8434 169.96 48.1174 170.131 48.3552C170.306 48.593 170.523 48.7946 170.787 48.9497C171.05 49.1047 171.37 49.1875 171.742 49.1875C172.316 49.1875 172.76 49.0375 173.085 48.7377C173.406 48.4379 173.633 48.0399 173.757 47.5436H174.537C174.371 48.2725 174.067 48.8359 173.622 49.234C173.178 49.632 172.553 49.8285 171.742 49.8285C171.236 49.8285 170.802 49.7406 170.43 49.5596C170.064 49.3839 169.764 49.1358 169.531 48.8256C169.299 48.5154 169.129 48.1536 169.015 47.7452C168.901 47.3368 168.85 46.9026 168.85 46.4477C168.85 46.0238 168.906 45.6102 169.015 45.207C169.129 44.8038 169.299 44.4368 169.531 44.1215C169.764 43.801 170.064 43.5477 170.43 43.3512C170.797 43.1548 171.236 43.0617 171.742 43.0617C172.248 43.0617 172.693 43.1651 173.059 43.3719C173.421 43.5787 173.721 43.8527 173.948 44.1835C174.175 44.5195 174.34 44.902 174.439 45.3414C174.537 45.7757 174.578 46.2151 174.563 46.6648H169.635C169.635 46.9439 169.676 47.2386 169.754 47.5384V47.5436ZM173.622 45.1502C173.529 44.8762 173.395 44.6332 173.22 44.4213C173.044 44.2093 172.832 44.0388 172.584 43.9095C172.336 43.7803 172.052 43.7183 171.742 43.7183C171.432 43.7183 171.133 43.7803 170.885 43.9095C170.637 44.0388 170.425 44.2093 170.249 44.4213C170.074 44.6332 169.934 44.8762 169.831 45.1553C169.728 45.4345 169.661 45.7188 169.624 46.0083H173.772C173.762 45.7085 173.71 45.4241 173.617 45.1502H173.622Z" fill="#EC6608"/>
  <path d="M176.339 43.2478V44.7521H176.365C176.562 44.23 176.871 43.8268 177.29 43.5477C177.708 43.2685 178.204 43.1393 178.788 43.16V43.9405C178.431 43.925 178.111 43.9716 177.822 44.0853C177.533 44.199 177.279 44.3541 177.073 44.566C176.861 44.7728 176.696 45.0209 176.582 45.3053C176.469 45.5896 176.407 45.9049 176.407 46.2409V49.6579H175.627V43.2478H176.345H176.339Z" fill="#EC6608"/>
  <path d="M179.676 43.2478L181.686 48.8773H181.711L183.7 43.2478H184.506L182.109 49.6579H181.277L178.808 43.2478H179.676Z" fill="#EC6608"/>
  <path d="M186.071 40.7872V42.0434H185.291V40.7872H186.071ZM186.071 43.2478V49.6579H185.291V43.2478H186.071Z" fill="#EC6608"/>
  <path d="M191.495 44.1318C191.205 43.8578 190.797 43.7234 190.275 43.7234C189.904 43.7234 189.578 43.801 189.294 43.9612C189.01 44.1163 188.778 44.3282 188.592 44.5815C188.406 44.84 188.266 45.1295 188.168 45.4552C188.075 45.7808 188.023 46.1168 188.023 46.4529C188.023 46.7889 188.07 47.1249 188.168 47.4505C188.261 47.7762 188.406 48.0709 188.592 48.3242C188.778 48.5826 189.01 48.7894 189.294 48.9445C189.573 49.0996 189.904 49.1823 190.275 49.1823C190.513 49.1823 190.74 49.1358 190.957 49.0479C191.174 48.9548 191.36 48.8308 191.531 48.6705C191.696 48.5103 191.83 48.319 191.939 48.0915C192.047 47.8693 192.114 47.6263 192.135 47.3575H192.915C192.807 48.1381 192.522 48.7429 192.058 49.1771C191.593 49.6113 190.999 49.8285 190.27 49.8285C189.78 49.8285 189.351 49.7406 188.974 49.5596C188.597 49.3839 188.282 49.1409 188.023 48.8308C187.765 48.5258 187.574 48.1639 187.44 47.7555C187.305 47.3472 187.243 46.9078 187.243 46.4425C187.243 45.9773 187.311 45.543 187.44 45.1295C187.574 44.7211 187.765 44.3593 188.023 44.0543C188.282 43.7493 188.597 43.5011 188.974 43.3202C189.351 43.1393 189.785 43.0462 190.27 43.0462C190.957 43.0462 191.541 43.2272 192.016 43.5942C192.491 43.9612 192.776 44.5092 192.868 45.2484H192.089C191.98 44.7676 191.784 44.3903 191.495 44.1163V44.1318Z" fill="#EC6608"/>
  <path d="M194.594 47.5436C194.671 47.8434 194.8 48.1174 194.971 48.3552C195.146 48.593 195.363 48.7946 195.627 48.9497C195.89 49.1047 196.21 49.1875 196.582 49.1875C197.156 49.1875 197.6 49.0375 197.925 48.7377C198.246 48.4379 198.473 48.0399 198.597 47.5436H199.377C199.212 48.2725 198.907 48.8359 198.463 49.234C198.018 49.632 197.393 49.8285 196.582 49.8285C196.076 49.8285 195.642 49.7406 195.27 49.5596C194.904 49.3839 194.604 49.1358 194.372 48.8256C194.139 48.5154 193.969 48.1536 193.855 47.7452C193.741 47.3368 193.69 46.9026 193.69 46.4477C193.69 46.0238 193.747 45.6102 193.855 45.207C193.969 44.8038 194.139 44.4368 194.372 44.1215C194.604 43.801 194.904 43.5477 195.27 43.3512C195.637 43.1548 196.076 43.0617 196.582 43.0617C197.089 43.0617 197.533 43.1651 197.9 43.3719C198.261 43.5787 198.561 43.8527 198.788 44.1835C199.015 44.5195 199.181 44.902 199.279 45.3414C199.377 45.7757 199.418 46.2151 199.403 46.6648H194.475C194.475 46.9439 194.516 47.2386 194.594 47.5384V47.5436ZM198.468 45.1502C198.375 44.8762 198.24 44.6332 198.065 44.4213C197.889 44.2093 197.683 44.0388 197.429 43.9095C197.182 43.7803 196.897 43.7183 196.588 43.7183C196.278 43.7183 195.978 43.7803 195.73 43.9095C195.482 44.0388 195.27 44.2093 195.095 44.4213C194.919 44.6332 194.785 44.8762 194.676 45.1553C194.573 45.4345 194.506 45.7188 194.47 46.0083H198.617C198.607 45.7085 198.556 45.4241 198.463 45.1502H198.468Z" fill="#EC6608"/>
  <path d="M204.144 44.4988C204.051 44.3231 203.933 44.1732 203.778 44.0594C203.623 43.9457 203.447 43.8578 203.251 43.8061C203.055 43.7544 202.843 43.7234 202.615 43.7234C202.44 43.7234 202.264 43.7441 202.089 43.7803C201.913 43.8165 201.748 43.8785 201.598 43.9664C201.448 44.0543 201.329 44.168 201.236 44.3076C201.143 44.4471 201.102 44.6229 201.102 44.8297C201.102 45.0054 201.143 45.1502 201.231 45.2691C201.319 45.388 201.427 45.4913 201.562 45.5741C201.696 45.6568 201.841 45.724 201.996 45.7808C202.151 45.8325 202.295 45.8791 202.43 45.9101L203.473 46.1479C203.695 46.1789 203.917 46.2409 204.139 46.3288C204.356 46.4167 204.552 46.5304 204.723 46.67C204.893 46.8095 205.033 46.9853 205.141 47.1921C205.25 47.3988 205.301 47.6418 205.301 47.9261C205.301 48.2725 205.224 48.5723 205.064 48.8153C204.909 49.0582 204.707 49.2598 204.459 49.4097C204.217 49.5648 203.938 49.6734 203.633 49.7406C203.328 49.8078 203.024 49.8388 202.729 49.8388C201.975 49.8388 201.365 49.663 200.895 49.3063C200.425 48.9497 200.162 48.381 200.095 47.5901H200.875C200.906 48.1226 201.102 48.5206 201.453 48.7894C201.805 49.0582 202.244 49.1926 202.765 49.1926C202.956 49.1926 203.153 49.1719 203.354 49.1306C203.556 49.0892 203.747 49.0169 203.917 48.9186C204.093 48.8204 204.232 48.6912 204.346 48.5413C204.459 48.3862 204.511 48.2001 204.511 47.9778C204.511 47.7866 204.47 47.6263 204.392 47.4971C204.315 47.3678 204.206 47.2593 204.077 47.1766C203.943 47.0887 203.793 47.0163 203.623 46.9594C203.452 46.9026 203.282 46.8509 203.106 46.8095L202.099 46.5873C201.841 46.5201 201.608 46.4425 201.391 46.3598C201.174 46.2719 200.988 46.1634 200.828 46.0393C200.668 45.9101 200.539 45.755 200.451 45.5689C200.358 45.3828 200.317 45.1502 200.317 44.8814C200.317 44.5609 200.389 44.2817 200.534 44.0491C200.678 43.8165 200.864 43.6304 201.097 43.4908C201.329 43.3512 201.588 43.2478 201.872 43.1806C202.156 43.1134 202.44 43.0824 202.724 43.0824C203.044 43.0824 203.349 43.1238 203.623 43.2065C203.902 43.2892 204.144 43.4184 204.356 43.589C204.568 43.7648 204.733 43.9767 204.857 44.2352C204.981 44.4937 205.054 44.7935 205.069 45.1398H204.289C204.279 44.902 204.232 44.6901 204.139 44.5143L204.144 44.4988Z" fill="#EC6608"/>
</svg>
